<svg xmlns="http://www.w3.org/2000/svg" width="1200" height="630" viewBox="0 0 1200 630">
  <defs>
    <linearGradient id="markGrad" x1="40" y1="30" x2="210" y2="232" gradientUnits="userSpaceOnUse">
      <stop offset="0" stop-color="#46ECB0"/>
      <stop offset="1" stop-color="#0F9A63"/>
    </linearGradient>
    <radialGradient id="glow" cx="0.82" cy="0.08" r="0.62">
      <stop offset="0" stop-color="#10B981" stop-opacity="0.22"/>
      <stop offset="1" stop-color="#10B981" stop-opacity="0"/>
    </radialGradient>
  </defs>

  <!-- Fond -->
  <rect width="1200" height="630" fill="#08080A"/>
  <rect width="1200" height="630" fill="url(#glow)"/>
  <!-- Cadre subtil -->
  <rect x="20" y="20" width="1160" height="590" rx="28" fill="none" stroke="#ffffff" stroke-opacity="0.06"/>

  <!-- Logo + wordmark -->
  <g transform="translate(90 56) scale(0.32)" fill="none" stroke="url(#markGrad)" stroke-linejoin="round" stroke-linecap="round">
    <path d="M128 22 L219.8 75 L219.8 181 L128 234 L36.2 181 L36.2 75 Z" stroke-width="13"/>
    <path d="M128 54 L154 69 L154 99 L128 114 L102 99 L102 69 Z" stroke-width="9.5"/>
    <line x1="128" y1="116" x2="128" y2="206" stroke-width="14"/>
    <line x1="128" y1="165" x2="148" y2="165" stroke-width="11"/>
    <line x1="128" y1="188" x2="148" y2="188" stroke-width="11"/>
    <circle cx="128" cy="84" r="8" fill="url(#markGrad)" stroke="none"/>
  </g>
  <text x="182" y="113" font-family="Segoe UI, Arial, sans-serif" font-size="46" font-weight="700" fill="#ffffff">RootPass</text>

  <!-- Eyebrow -->
  <text x="92" y="322" font-family="Segoe UI, Arial, sans-serif" font-size="22" font-weight="600" letter-spacing="3" fill="#34D399">GESTIONNAIRE DE MOTS DE PASSE — OPEN SOURCE</text>

  <!-- Titre -->
  <text x="90" y="398" font-family="Segoe UI, Arial, sans-serif" font-size="70" font-weight="800" fill="#ffffff">La sécurité d'un bunker.</text>
  <text x="90" y="480" font-family="Segoe UI, Arial, sans-serif" font-size="70" font-weight="800" fill="#34D399">L'ergonomie de 2026.</text>

  <!-- Sous-titre -->
  <text x="92" y="545" font-family="Segoe UI, Arial, sans-serif" font-size="27" font-weight="400" fill="#a1a1aa">100 % local  ·  0 % cloud  ·  0 % télémétrie</text>

  <!-- URL -->
  <text x="1110" y="570" text-anchor="end" font-family="Consolas, monospace" font-size="22" fill="#52525b">rootpass.vercel.app</text>
</svg>
